<?xml version="1.0" encoding="UTF-8" standalone="no"?>
<!-- Created with Inkscape (http://www.inkscape.org/) -->

<svg
   sodipodi:docname="QR01.svg"
   id="svg5"
   version="1.1"
   viewBox="0 0 210 297"
   height="297mm"
   width="210mm"
   inkscape:version="1.2 (dc2aeda, 2022-05-15)"
   xmlns:inkscape="http://www.inkscape.org/namespaces/inkscape"
   xmlns:sodipodi="http://sodipodi.sourceforge.net/DTD/sodipodi-0.dtd"
   xmlns="http://www.w3.org/2000/svg"
   xmlns:svg="http://www.w3.org/2000/svg">
  <sodipodi:namedview
     id="namedview7"
     pagecolor="#ffffff"
     bordercolor="#000000"
     borderopacity="0.25"
     inkscape:showpageshadow="2"
     inkscape:pageopacity="0.0"
     inkscape:pagecheckerboard="0"
     inkscape:deskcolor="#d1d1d1"
     inkscape:document-units="mm"
     showgrid="false"
     inkscape:zoom="2"
     inkscape:cx="365.25"
     inkscape:cy="540.75"
     inkscape:window-width="1619"
     inkscape:window-height="897"
     inkscape:window-x="273"
     inkscape:window-y="56"
     inkscape:window-maximized="0"
     inkscape:current-layer="layer1" />
  <defs
     id="defs2" />
  <g
     inkscape:label="Layer 1"
     inkscape:groupmode="layer"
     id="layer1">
    <rect
       x="85.733955"
       y="125.41843"
       width="34.924957"
       height="34.924957"
       style="fill:#ffffff;stroke:none;stroke-width:0.264583"
       id="rect540" />
    <g
       inkscape:label="QR Code: https://formgraphicsinc.com"
       transform="matrix(0.264583,0,0,0.264583,83.938667,124.68446)"
       id="g734"
       inkscape:export-filename="QRformgraphics.png"
       inkscape:export-xdpi="1.45"
       inkscape:export-ydpi="1.45">
      <rect
         x="0"
         y="0"
         width="132"
         height="132"
         style="fill:#ffffff;stroke:none"
         id="rect728" />
      <g
         style="fill:#000000;stroke:none"
         id="g732">
        <path
           d="m 115.6,116 h -3.2 c -0.22091,0 -0.4,-0.17909 -0.4,-0.4 v -3.2 c 0,-0.22091 -0.17909,-0.4 -0.4,-0.4 H 104 v -3.6 c 0,-0.22091 -0.17909,-0.4 -0.4,-0.4 h -3.2 c -0.22091,0 -0.4,0.17909 -0.4,0.4 v 3.6 h -8 v -3.6 c 0,-0.22091 0.179086,-0.4 0.4,-0.4 h 3.2 c 0.220914,0 0.4,-0.17909 0.4,-0.4 v -3.2 c 0,-0.22091 0.179086,-0.4 0.4,-0.4 h 11.2 c 0.22091,0 0.4,-0.17909 0.4,-0.4 v -3.2 c 0,-0.22091 0.17909,-0.4 0.4,-0.4 h 7.2 c 0.22091,0 0.4,0.17909 0.4,0.4 v 15.2 c 0,0.22091 -0.17909,0.4 -0.4,0.4 z m -12,0 h -3.2 c -0.22091,0 -0.4,-0.17909 -0.4,-0.4 V 112 h 4 v 3.6 c 0,0.22091 -0.17909,0.4 -0.4,0.4 z m -12,0 h -3.2 c -0.220914,0 -0.4,-0.17909 -0.4,-0.4 v -3.2 c 0,-0.22091 0.179086,-0.4 0.4,-0.4 H 92 v 3.6 c 0,0.22091 -0.179086,0.4 -0.4,0.4 z m -8,0 h -3.2 c -0.220914,0 -0.4,-0.17909 -0.4,-0.4 v -3.2 c 0,-0.22091 0.179086,-0.4 0.4,-0.4 h 3.2 c 0.220914,0 0.4,0.17909 0.4,0.4 v 3.2 c 0,0.22091 -0.179086,0.4 -0.4,0.4 z m -8,0 h -3.2 c -0.220914,0 -0.4,-0.17909 -0.4,-0.4 v -7.2 C 72,108.17909 71.820914,108 71.6,108 H 56.4 c -0.220914,0 -0.4,-0.17909 -0.4,-0.4 v -3.2 c 0,-0.22091 0.179086,-0.4 0.4,-0.4 h 3.2 c 0.220914,0 0.4,-0.17909 0.4,-0.4 V 100 h 4 v 3.6 c 0,0.22091 0.179086,0.4 0.4,0.4 h 7.2 c 0.220914,0 0.4,-0.17909 0.4,-0.4 V 96.4 C 72,96.179086 71.820914,96 71.6,96 H 68.4 C 68.179086,96 68,96.179086 68,96.4 v 3.2 c 0,0.220914 -0.179086,0.4 -0.4,0.4 H 64 V 96.4 C 64,96.179086 63.820914,96 63.6,96 H 60 V 92.4 C 60,92.179086 59.820914,92 59.6,92 H 56.4 C 56.179086,92 56,92.179086 56,92.4 v 3.2 c 0,0.220914 0.179086,0.4 0.4,0.4 H 60 v 4 h -7.6 c -0.220914,0 -0.4,0.17909 -0.4,0.4 v 3.2 c 0,0.22091 -0.179086,0.4 -0.4,0.4 H 48.4 C 48.179086,104 48,103.82091 48,103.6 V 96.4 C 48,96.179086 48.179086,96 48.4,96 h 3.2 C 51.820914,96 52,95.820914 52,95.6 V 88 h 3.6 C 55.820914,88 56,87.820914 56,87.6 V 84.4 C 56,84.179086 56.179086,84 56.4,84 h 3.2 c 0.220914,0 0.4,0.179086 0.4,0.4 v 3.2 c 0,0.220914 0.179086,0.4 0.4,0.4 h 3.2 c 0.220914,0 0.4,0.179086 0.4,0.4 v 3.2 c 0,0.220914 0.179086,0.4 0.4,0.4 H 79.6 C 79.820914,92 80,91.820914 80,91.6 V 88.4 C 80,88.179086 79.820914,88 79.6,88 H 76.4 C 76.179086,88 76,87.820914 76,87.6 V 72.4 C 76,72.179086 75.820914,72 75.6,72 H 72 V 68.4 C 72,68.179086 72.179086,68 72.4,68 h 3.2 C 75.820914,68 76,67.820914 76,67.6 V 64 h 3.6 C 79.820914,64 80,63.820914 80,63.6 V 60.4 C 80,60.179086 79.820914,60 79.6,60 H 76.4 C 76.179086,60 76,60.179086 76,60.4 V 64 H 72.4 C 72.179086,64 72,63.820914 72,63.6 V 60.4 C 72,60.179086 71.820914,60 71.6,60 H 68.4 C 68.179086,60 68,59.820914 68,59.6 V 56 h 7.6 C 75.820914,56 76,55.820914 76,55.6 V 52.4 C 76,52.179086 75.820914,52 75.6,52 H 72.4 C 72.179086,52 72,51.820914 72,51.6 V 48 h 7.6 c 0.220914,0 0.4,0.179086 0.4,0.4 v 7.2 c 0,0.220914 0.179086,0.4 0.4,0.4 h 3.2 c 0.220914,0 0.4,0.179086 0.4,0.4 v 11.2 c 0,0.220914 0.179086,0.4 0.4,0.4 H 88 v 4 H 84.4 C 84.179086,72 84,72.179086 84,72.4 v 7.2 c 0,0.220914 0.179086,0.4 0.4,0.4 h 7.2 C 91.820914,80 92,79.820914 92,79.6 V 76 h 4 v 3.6 c 0,0.220914 0.179086,0.4 0.4,0.4 h 3.6 v 19.6 c 0,0.220914 -0.179086,0.4 -0.4,0.4 h -7.2 c -0.220914,0 -0.4,0.17909 -0.4,0.4 v 3.2 c 0,0.22091 -0.179086,0.4 -0.4,0.4 h -3.2 c -0.220914,0 -0.4,0.17909 -0.4,0.4 v 3.2 c 0,0.22091 -0.179086,0.4 -0.4,0.4 h -3.2 c -0.220914,0 -0.4,-0.17909 -0.4,-0.4 v -7.2 c 0,-0.22091 -0.179086,-0.4 -0.4,-0.4 h -3.2 c -0.220914,0 -0.4,0.17909 -0.4,0.4 v 3.2 c 0,0.22091 -0.179086,0.4 -0.4,0.4 h -3.2 c -0.220914,0 -0.4,0.17909 -0.4,0.4 v 11.2 c 0,0.22091 -0.179086,0.4 -0.4,0.4 z m -8,0 h -3.2 c -0.220914,0 -0.4,-0.17909 -0.4,-0.4 v -3.2 c 0,-0.22091 0.179086,-0.4 0.4,-0.4 h 3.2 c 0.220914,0 0.4,0.17909 0.4,0.4 v 3.2 c 0,0.22091 -0.179086,0.4 -0.4,0.4 z m -12,0 h -7.2 c -0.220914,0 -0.4,-0.17909 -0.4,-0.4 v -7.2 c 0,-0.22091 0.179086,-0.4 0.4,-0.4 h 3.2 c 0.220914,0 0.4,0.17909 0.4,0.4 v 3.2 c 0,0.22091 0.179086,0.4 0.4,0.4 h 3.2 c 0.220914,0 0.4,0.17909 0.4,0.4 v 3.2 c 0,0.22091 -0.179086,0.4 -0.4,0.4 z m -12,0 H 16.4 C 16.179086,116 16,115.82091 16,115.6 V 88.4 C 16,88.179086 16.179086,88 16.4,88 h 27.2 c 0.220914,0 0.4,0.179086 0.4,0.4 v 27.2 c 0,0.22091 -0.179086,0.4 -0.4,0.4 z M 40,111.6 V 92.4 C 40,92.179086 39.820914,92 39.6,92 H 20.4 C 20.179086,92 20,92.179086 20,92.4 v 19.2 c 0,0.22091 0.179086,0.4 0.4,0.4 h 19.2 c 0.220914,0 0.4,-0.17909 0.4,-0.4 z M 35.6,108 H 24.4 C 24.179086,108 24,107.82091 24,107.6 V 96.4 C 24,96.179086 24.179086,96 24.4,96 h 11.2 c 0.220914,0 0.4,0.179086 0.4,0.4 v 11.2 c 0,0.22091 -0.179086,0.4 -0.4,0.4 z m 76,-12 h -3.2 c -0.22091,0 -0.4,-0.179086 -0.4,-0.4 v -3.2 c 0,-0.220914 0.17909,-0.4 0.4,-0.4 h 3.6 v 3.6 c 0,0.220914 -0.17909,0.4 -0.4,0.4 z M 96,95.6 V 84.4 C 96,84.179086 95.820914,84 95.6,84 H 84.4 C 84.179086,84 84,84.179086 84,84.4 v 11.2 c 0,0.220914 0.179086,0.4 0.4,0.4 H 95.6 C 95.820914,96 96,95.820914 96,95.6 Z M 115.6,92 H 112 v -4 h 3.6 c 0.22091,0 0.4,0.179086 0.4,0.4 v 3.2 c 0,0.220914 -0.17909,0.4 -0.4,0.4 z m -24,0 H 88.4 C 88.179086,92 88,91.820914 88,91.6 V 88.4 C 88,88.179086 88.179086,88 88.4,88 h 3.2 c 0.220914,0 0.4,0.179086 0.4,0.4 v 3.2 c 0,0.220914 -0.179086,0.4 -0.4,0.4 z m 20,-4 h -7.2 C 104.17909,88 104,87.820914 104,87.6 V 80.4 C 104,80.179086 103.82091,80 103.6,80 H 100 V 76.4 C 100,76.179086 99.820914,76 99.6,76 H 96 v -8 h 3.6 c 0.220914,0 0.4,0.179086 0.4,0.4 v 3.2 c 0,0.220914 0.17909,0.4 0.4,0.4 h 7.2 c 0.22091,0 0.4,-0.179086 0.4,-0.4 v -3.2 c 0,-0.220914 0.17909,-0.4 0.4,-0.4 h 3.6 v 3.6 c 0,0.220914 0.17909,0.4 0.4,0.4 h 3.2 c 0.22091,0 0.4,0.179086 0.4,0.4 v 7.2 c 0,0.220914 -0.17909,0.4 -0.4,0.4 H 112 v -3.6 c 0,-0.220914 -0.17909,-0.4 -0.4,-0.4 h -3.2 c -0.22091,0 -0.4,0.179086 -0.4,0.4 v 3.2 c 0,0.220914 0.17909,0.4 0.4,0.4 h 3.6 v 8 z m -40,0 H 68.4 C 68.179086,88 68,87.820914 68,87.6 V 84.4 C 68,84.179086 67.820914,84 67.6,84 H 64.4 C 64.179086,84 64,83.820914 64,83.6 V 80 h 7.6 c 0.220914,0 0.4,0.179086 0.4,0.4 v 7.2 c 0,0.220914 -0.179086,0.4 -0.4,0.4 z m -20,0 H 48.4 C 48.179086,88 48,87.820914 48,87.6 V 80 h 4 v 8 z m -8,-4 H 36.4 C 36.179086,84 36,83.820914 36,83.6 V 80.4 C 36,80.179086 36.179086,80 36.4,80 H 44 v 3.6 c 0,0.220914 -0.179086,0.4 -0.4,0.4 z m -12,0 H 28.4 C 28.179086,84 28,83.820914 28,83.6 V 80.4 C 28,80.179086 28.179086,80 28.4,80 h 3.2 c 0.220914,0 0.4,0.179086 0.4,0.4 v 3.2 c 0,0.220914 -0.179086,0.4 -0.4,0.4 z m -12,0 H 16.4 C 16.179086,84 16,83.820914 16,83.6 V 60.4 C 16,60.179086 16.179086,60 16.4,60 h 3.2 C 19.820914,60 20,59.820914 20,59.6 V 52.4 C 20,52.179086 19.820914,52 19.6,52 H 16.4 C 16.179086,52 16,51.820914 16,51.6 V 48.4 C 16,48.179086 16.179086,48 16.4,48 h 7.2 c 0.220914,0 0.4,0.179086 0.4,0.4 V 64 H 20.4 C 20.179086,64 20,64.179086 20,64.4 v 7.2 c 0,0.220914 0.179086,0.4 0.4,0.4 H 24 v 3.6 C 24,75.820914 23.820914,76 23.6,76 H 20.4 C 20.179086,76 20,76.179086 20,76.4 v 7.2 c 0,0.220914 -0.179086,0.4 -0.4,0.4 z m 44,-4 H 52 V 72.4 C 52,72.179086 51.820914,72 51.6,72 H 48 V 68.4 C 48,68.179086 47.820914,68 47.6,68 H 40.4 C 40.179086,68 40,67.820914 40,67.6 V 64.4 C 40,64.179086 40.179086,64 40.4,64 h 3.2 C 43.820914,64 44,63.820914 44,63.6 V 60 h 3.6 c 0.220914,0 0.4,0.179086 0.4,0.4 v 3.2 c 0,0.220914 0.179086,0.4 0.4,0.4 h 3.2 C 51.820914,64 52,63.820914 52,63.6 V 60.4 C 52,60.179086 52.179086,60 52.4,60 h 3.2 C 55.820914,60 56,59.820914 56,59.6 V 56 h 8 v 8 H 56.4 C 56.179086,64 56,64.179086 56,64.4 v 11.2 c 0,0.220914 0.179086,0.4 0.4,0.4 h 7.2 c 0.220914,0 0.4,0.179086 0.4,0.4 V 80 Z m -16,0 H 44 V 76.4 C 44,76.179086 43.820914,76 43.6,76 H 36.4 C 36.179086,76 36,75.820914 36,75.6 V 72.4 C 36,72.179086 36.179086,72 36.4,72 H 48 v 8 z m 44,-4 H 88.4 C 88.179086,76 88,75.820914 88,75.6 V 72 h 3.6 c 0.220914,0 0.4,0.179086 0.4,0.4 V 76 Z m -20,0 H 68.4 C 68.179086,76 68,75.820914 68,75.6 V 72.4 C 68,72.179086 68.179086,72 68.4,72 H 72 v 3.6 c 0,0.220914 -0.179086,0.4 -0.4,0.4 z m -8,-4 H 60.4 C 60.179086,72 60,71.820914 60,71.6 V 68.4 C 60,68.179086 60.179086,68 60.4,68 H 64 v 3.6 c 0,0.220914 -0.179086,0.4 -0.4,0.4 z m -32,0 H 24 v -8 h 11.6 c 0.220914,0 0.4,0.179086 0.4,0.4 v 3.2 C 36,67.820914 35.820914,68 35.6,68 H 32.4 C 32.179086,68 32,68.179086 32,68.4 v 3.2 c 0,0.220914 -0.179086,0.4 -0.4,0.4 z m 84,-4 H 112 V 64.4 C 112,64.179086 111.82091,64 111.6,64 H 100.4 C 100.17909,64 100,63.820914 100,63.6 V 56.4 C 100,56.179086 99.820914,56 99.6,56 H 92.4 C 92.179086,56 92,55.820914 92,55.6 V 52 h 20 v 4 h -7.6 c -0.22091,0 -0.4,0.179086 -0.4,0.4 v 3.2 c 0,0.220914 0.17909,0.4 0.4,0.4 h 7.2 c 0.22091,0 0.4,-0.179086 0.4,-0.4 V 56 h 3.6 c 0.22091,0 0.4,0.179086 0.4,0.4 v 11.2 c 0,0.220914 -0.17909,0.4 -0.4,0.4 z m -20,0 H 88 V 64.4 C 88,64.179086 88.179086,64 88.4,64 h 3.2 C 91.820914,64 92,63.820914 92,63.6 V 60.4 C 92,60.179086 92.179086,60 92.4,60 h 3.2 c 0.220914,0 0.4,0.179086 0.4,0.4 V 68 Z m -28,0 H 64 v -4 h 3.6 c 0.220914,0 0.4,0.179086 0.4,0.4 v 3.2 c 0,0.220914 -0.179086,0.4 -0.4,0.4 z m -24,-8 H 40.4 C 40.179086,60 40,59.820914 40,59.6 V 56 h 3.6 c 0.220914,0 0.4,0.179086 0.4,0.4 V 60 Z m 24,-4 H 64 V 52.4 C 64,52.179086 63.820914,52 63.6,52 H 56.4 C 56.179086,52 56,52.179086 56,52.4 V 56 H 48.4 C 48.179086,56 48,55.820914 48,55.6 V 52.4 C 48,52.179086 48.179086,52 48.4,52 h 3.2 C 51.820914,52 52,51.820914 52,51.6 V 48 h 3.6 C 55.820914,48 56,47.820914 56,47.6 V 36 h 4 v 7.6 c 0,0.220914 0.179086,0.4 0.4,0.4 H 64 v 3.6 c 0,0.220914 0.179086,0.4 0.4,0.4 H 68 v 8 z m -28,0 H 32.4 C 32.179086,56 32,55.820914 32,55.6 V 52.4 C 32,52.179086 31.820914,52 31.6,52 H 28.4 C 28.179086,52 28,51.820914 28,51.6 V 48.4 C 28,48.179086 28.179086,48 28.4,48 h 7.2 c 0.220914,0 0.4,0.179086 0.4,0.4 v 3.2 c 0,0.220914 0.179086,0.4 0.4,0.4 H 40 v 4 z m 76,-4 H 112 v -3.6 c 0,-0.220914 0.17909,-0.4 0.4,-0.4 h 3.2 c 0.22091,0 0.4,0.179086 0.4,0.4 v 3.2 c 0,0.220914 -0.17909,0.4 -0.4,0.4 z m -24,0 H 88.4 C 88.179086,52 88,51.820914 88,51.6 V 48.4 C 88,48.179086 88.179086,48 88.4,48 h 3.2 c 0.220914,0 0.4,0.179086 0.4,0.4 V 52 Z m -48,0 H 40 V 48.4 C 40,48.179086 40.179086,48 40.4,48 h 3.2 c 0.220914,0 0.4,0.179086 0.4,0.4 v 3.2 c 0,0.220914 -0.179086,0.4 -0.4,0.4 z m 28,-4 H 68 v -4 h 4 v 4 z m -20,0 H 48.4 C 48.179086,48 48,47.820914 48,47.6 V 40.4 C 48,40.179086 48.179086,40 48.4,40 h 3.2 c 0.220914,0 0.4,0.179086 0.4,0.4 V 48 Z m 64,-4 H 88.4 C 88.179086,44 88,43.820914 88,43.6 V 16.4 C 88,16.179086 88.179086,16 88.4,16 h 27.2 c 0.22091,0 0.4,0.179086 0.4,0.4 v 27.2 c 0,0.220914 -0.17909,0.4 -0.4,0.4 z m -32,0 H 80.4 C 80.179086,44 80,43.820914 80,43.6 V 32.4 C 80,32.179086 79.820914,32 79.6,32 H 76 V 28.4 C 76,28.179086 75.820914,28 75.6,28 H 72.4 C 72.179086,28 72,28.179086 72,28.4 V 32 H 64 V 24.4 C 64,24.179086 64.179086,24 64.4,24 h 3.2 C 67.820914,24 68,23.820914 68,23.6 V 20 h 3.6 C 71.820914,20 72,19.820914 72,19.6 V 16.4 C 72,16.179086 72.179086,16 72.4,16 h 3.2 c 0.220914,0 0.4,0.179086 0.4,0.4 v 7.2 c 0,0.220914 0.179086,0.4 0.4,0.4 h 7.2 c 0.220914,0 0.4,0.179086 0.4,0.4 v 19.2 c 0,0.220914 -0.179086,0.4 -0.4,0.4 z m -8,0 H 72 v -4 h 3.6 c 0.220914,0 0.4,0.179086 0.4,0.4 v 3.2 c 0,0.220914 -0.179086,0.4 -0.4,0.4 z m -8,0 H 64 v -8 h 8 v 4 H 68.4 C 68.179086,40 68,40.179086 68,40.4 V 44 Z m -24,0 H 16.4 C 16.179086,44 16,43.820914 16,43.6 V 16.4 C 16,16.179086 16.179086,16 16.4,16 h 27.2 c 0.220914,0 0.4,0.179086 0.4,0.4 V 43.6 C 44,43.820914 43.820914,44 43.6,44 Z M 112,39.6 V 20.4 C 112,20.179086 111.82091,20 111.6,20 H 92.4 C 92.179086,20 92,20.179086 92,20.4 v 19.2 c 0,0.220914 0.179086,0.4 0.4,0.4 h 19.2 c 0.22091,0 0.4,-0.179086 0.4,-0.4 z m -72,0 V 20.4 C 40,20.179086 39.820914,20 39.6,20 H 20.4 C 20.179086,20 20,20.179086 20,20.4 v 19.2 c 0,0.220914 0.179086,0.4 0.4,0.4 H 39.6 C 39.820914,40 40,39.820914 40,39.6 Z M 107.6,36 H 96.4 C 96.179086,36 96,35.820914 96,35.6 V 24.4 C 96,24.179086 96.179086,24 96.4,24 h 11.2 c 0.22091,0 0.4,0.179086 0.4,0.4 v 11.2 c 0,0.220914 -0.17909,0.4 -0.4,0.4 z m -32,0 H 72 v -4 h 4 v 3.6 c 0,0.220914 -0.179086,0.4 -0.4,0.4 z m -12,0 H 60 V 32.4 C 60,32.179086 60.179086,32 60.4,32 H 64 v 4 z m -8,0 H 52.4 C 52.179086,36 52,35.820914 52,35.6 V 32.4 C 52,32.179086 52.179086,32 52.4,32 h 3.2 c 0.220914,0 0.4,0.179086 0.4,0.4 V 36 Z m -20,0 H 24.4 C 24.179086,36 24,35.820914 24,35.6 V 24.4 C 24,24.179086 24.179086,24 24.4,24 h 11.2 c 0.220914,0 0.4,0.179086 0.4,0.4 v 11.2 c 0,0.220914 -0.179086,0.4 -0.4,0.4 z m 24,-8 H 56.4 C 56.179086,28 56,27.820914 56,27.6 V 24.4 C 56,24.179086 55.820914,24 55.6,24 H 52.4 C 52.179086,24 52,23.820914 52,23.6 V 20 h 8 v 7.6 c 0,0.220914 -0.179086,0.4 -0.4,0.4 z m 8,-8 H 60 V 16.4 C 60,16.179086 60.179086,16 60.4,16 h 7.2 c 0.220914,0 0.4,0.179086 0.4,0.4 V 20 Z m -16,0 H 48.4 C 48.179086,20 48,19.820914 48,19.6 V 16.4 C 48,16.179086 48.179086,16 48.4,16 h 3.2 c 0.220914,0 0.4,0.179086 0.4,0.4 V 20 Z"
           id="path730" />
      </g>
    </g>
  </g>
</svg>
